<svg xmlns="http://www.w3.org/2000/svg" viewBox="0 0 1200 800" width="1200" height="800" role="img">
  <defs>
    <linearGradient id="bg-b3" x1="0" y1="0" x2="1" y2="1">
      <stop offset="0%" stop-color="#2A1447"/>
      <stop offset="52%" stop-color="#4B2A7B"/>
      <stop offset="100%" stop-color="#8A5FB8"/>
    </linearGradient>
    <radialGradient id="sun-b3" cx="50%" cy="50%" r="50%">
      <stop offset="0%" stop-color="#FFF3D6"/>
      <stop offset="45%" stop-color="#D9A441"/>
      <stop offset="100%" stop-color="#D9A441" stop-opacity="0"/>
    </radialGradient>
    <linearGradient id="fade-b3" x1="0" y1="0" x2="0" y2="1">
      <stop offset="55%" stop-color="#000" stop-opacity="0"/>
      <stop offset="100%" stop-color="#000" stop-opacity="0.45"/>
    </linearGradient>
    <pattern id="dots-b3" width="26" height="26" patternUnits="userSpaceOnUse">
      <circle cx="2" cy="2" r="1.4" fill="#ffffff" fill-opacity="0.14"/>
    </pattern>
  </defs>
  <rect width="1200" height="800" fill="url(#bg-b3)"/>
  <g opacity="0.92">
             <path d="M880 140 A170 170 0 1 0 880 480 A140 140 0 1 1 880 140Z" fill="#D9A441" opacity="0.9"/>
             <circle cx="470" cy="240" r="46" fill="#FFF6E2" opacity="0.85"/>
             <path d="M250 600 C330 540 430 530 530 556 C630 582 730 580 810 548" fill="none" stroke="#FFFFFF" stroke-width="8" stroke-linecap="round" opacity="0.4"/>
             <path d="M250 660 C330 600 430 590 530 616 C630 642 730 640 810 608" fill="none" stroke="#FFFFFF" stroke-width="8" stroke-linecap="round" opacity="0.25"/>
           </g>
  <rect width="1200" height="800" fill="url(#dots-b3)"/>
</svg>
